<svg width="103" height="33" viewBox="0 0 103 33" fill="none" xmlns="http://www.w3.org/2000/svg">
<path d="M43.75 23.0002L40.786 18.5282L38.16 23.0002H34.26L38.966 15.7722L34.208 8.59621H38.316L41.254 13.0422L43.906 8.59621H47.806L43.074 15.7722L47.858 23.0002H43.75Z" fill="#292929"/>
<path d="M52.981 6.88021C52.3397 6.88021 51.8024 6.68088 51.369 6.28221C50.953 5.86621 50.745 5.35488 50.745 4.74821C50.745 4.14154 50.953 3.63888 51.369 3.24021C51.8024 2.82421 52.3397 2.61621 52.981 2.61621C53.6224 2.61621 54.151 2.82421 54.567 3.24021C55.0004 3.63888 55.217 4.14154 55.217 4.74821C55.217 5.35488 55.0004 5.86621 54.567 6.28221C54.151 6.68088 53.6224 6.88021 52.981 6.88021ZM54.775 8.59621V23.0002H51.135V8.59621H54.775Z" fill="#292929"/>
<path d="M73.0614 15.4862C73.0614 16.0062 73.0267 16.4742 72.9574 16.8902H62.4274C62.514 17.9302 62.878 18.7449 63.5194 19.3342C64.1607 19.9235 64.9494 20.2182 65.8854 20.2182C67.2374 20.2182 68.1994 19.6375 68.7714 18.4762H72.6974C72.2814 19.8629 71.484 21.0069 70.3054 21.9082C69.1267 22.7922 67.6794 23.2342 65.9634 23.2342C64.5767 23.2342 63.3287 22.9309 62.2194 22.3242C61.1274 21.7002 60.2694 20.8249 59.6454 19.6982C59.0387 18.5715 58.7354 17.2715 58.7354 15.7982C58.7354 14.3075 59.0387 12.9989 59.6454 11.8722C60.252 10.7455 61.1014 9.87888 62.1934 9.27221C63.2854 8.66554 64.542 8.36221 65.9634 8.36221C67.3327 8.36221 68.5547 8.65688 69.6294 9.24621C70.7214 9.83554 71.562 10.6762 72.1514 11.7682C72.758 12.8429 73.0614 14.0822 73.0614 15.4862ZM69.2914 14.4462C69.274 13.5102 68.936 12.7649 68.2774 12.2102C67.6187 11.6382 66.8127 11.3522 65.8594 11.3522C64.958 11.3522 64.1954 11.6295 63.5714 12.1842C62.9647 12.7215 62.592 13.4755 62.4534 14.4462H69.2914Z" fill="#292929"/>
<path d="M80.6582 10.8322C81.1262 10.0695 81.7329 9.47154 82.4782 9.03821C83.2409 8.60488 84.1076 8.38821 85.0782 8.38821V12.2102H84.1162C82.9722 12.2102 82.1056 12.4789 81.5162 13.0162C80.9442 13.5535 80.6582 14.4895 80.6582 15.8242V23.0002H77.0182V8.59621H80.6582V10.8322Z" fill="#292929"/>
<path d="M87.8939 15.7462C87.8939 14.2902 88.1799 12.9989 88.7519 11.8722C89.3413 10.7455 90.1299 9.87888 91.1179 9.27221C92.1233 8.66554 93.2413 8.36221 94.4719 8.36221C95.5466 8.36221 96.4826 8.57888 97.2799 9.01221C98.0946 9.44554 98.7446 9.99154 99.2299 10.6502V8.59621H102.896V23.0002H99.2299V20.8942C98.7619 21.5702 98.1119 22.1335 97.2799 22.5842C96.4653 23.0175 95.5206 23.2342 94.4459 23.2342C93.2326 23.2342 92.1233 22.9222 91.1179 22.2982C90.1299 21.6742 89.3413 20.7989 88.7519 19.6722C88.1799 18.5282 87.8939 17.2195 87.8939 15.7462ZM99.2299 15.7982C99.2299 14.9142 99.0566 14.1602 98.7099 13.5362C98.3633 12.8949 97.8953 12.4095 97.3059 12.0802C96.7166 11.7335 96.0839 11.5602 95.4079 11.5602C94.7319 11.5602 94.1079 11.7249 93.5359 12.0542C92.9639 12.3835 92.4959 12.8689 92.1319 13.5102C91.7853 14.1342 91.6119 14.8795 91.6119 15.7462C91.6119 16.6129 91.7853 17.3755 92.1319 18.0342C92.4959 18.6755 92.9639 19.1695 93.5359 19.5162C94.1253 19.8629 94.7493 20.0362 95.4079 20.0362C96.0839 20.0362 96.7166 19.8715 97.3059 19.5422C97.8953 19.1955 98.3633 18.7102 98.7099 18.0862C99.0566 17.4449 99.2299 16.6822 99.2299 15.7982Z" fill="#292929"/>
<path fill-rule="evenodd" clip-rule="evenodd" d="M15.9402 2.90676C15.5674 2.38475 14.8599 2.22973 14.3029 2.548L2.84277 9.09665C2.46578 9.31207 2.22759 9.70769 2.21359 10.1417L1.78777 23.3422C1.77307 23.7979 2.00763 24.2254 2.39986 24.4579L13.8949 31.2697C14.2771 31.4962 14.7508 31.5028 15.1392 31.2871L26.6459 24.8944C27.0297 24.6812 27.2735 24.2822 27.2882 23.8434L27.7215 10.8424C27.7331 10.4966 27.6008 10.1615 27.3561 9.91686L26.5175 9.0783C26.1285 8.68927 25.5309 8.60033 25.0454 8.85924L23.75 9.55012V19.9817C23.75 20.8615 23.329 21.6882 22.6175 22.2057L15.3466 27.4936C13.6035 28.7613 11.1459 27.6222 10.9867 25.4727L10.8464 23.5784L9.77208 24.1389C7.94122 25.0941 5.75002 23.7659 5.75002 21.7008V13.646C5.75002 12.67 6.26732 11.7672 7.10929 11.2736L17.25 5.32903V5.14105C17.25 4.88052 17.1686 4.6265 17.0172 4.4145L15.9402 2.90676ZM18.673 4.49485C18.5907 4.15444 18.4437 3.83089 18.2378 3.54264L17.1608 2.0349C16.3405 0.886477 14.784 0.545436 13.5587 1.24564L2.09856 7.79428C1.26919 8.26821 0.745166 9.13856 0.714369 10.0933L0.288545 23.2938C0.256206 24.2963 0.772258 25.2369 1.63516 25.7483L13.1302 32.5602C13.9711 33.0585 15.0132 33.073 15.8677 32.5983L27.3744 26.2057C28.2188 25.7366 28.7551 24.8588 28.7873 23.8934L29.2207 10.8924C29.2461 10.1316 28.955 9.39442 28.4168 8.8562L27.5782 8.01764C26.7223 7.16177 25.4075 6.96612 24.3395 7.53571L23.75 7.85012V7.60567C23.75 7.06275 23.5893 6.53198 23.2882 6.08024L22.6711 5.1547C21.8629 3.94233 20.2493 3.57083 18.9923 4.30771L18.673 4.49485ZM17.25 7.06776L7.86787 12.5676C7.48516 12.792 7.25002 13.2024 7.25002 13.646V21.7008C7.25002 22.6395 8.24602 23.2432 9.07823 22.809L10.7257 21.9495L10.3483 16.8548C10.2679 15.7689 10.8358 14.7377 11.7967 14.2252L17.25 11.3168V7.06776ZM18.75 10.5168V6.18845L19.7508 5.60176C20.3222 5.26681 21.0557 5.43568 21.4231 5.98675L22.0401 6.91229C22.177 7.11763 22.25 7.35889 22.25 7.60567V8.65012L18.75 10.5168ZM17.25 13.0168L12.5026 15.5488C12.0658 15.7817 11.8077 16.2504 11.8442 16.744L12.1738 21.1939L16.5782 18.896C16.9911 18.6806 17.25 18.2535 17.25 17.7877V13.0168ZM12.2945 22.8229L17.2721 20.2259C18.1804 19.7519 18.75 18.8123 18.75 17.7877V12.2168L22.25 10.3501V19.9817C22.25 20.3816 22.0587 20.7574 21.7352 20.9926L14.4644 26.2805C13.6721 26.8567 12.555 26.3389 12.4826 25.3619L12.2945 22.8229Z" fill="#FF764A"/>
</svg>
